<svg width="137" height="107" viewBox="0 0 137 107" fill="none" xmlns="http://www.w3.org/2000/svg">
<rect x="27.8259" y="28.6828" width="82.8611" height="27.886" fill="#387FC7"/>
<rect x="40.5739" width="57.3654" height="62.9426" rx="5" fill="#F5F5F7"/>
<rect opacity="0.3" x="45.3545" y="19.9186" width="47.8045" height="1.59348" rx="0.796741" fill="#D9D9D9"/>
<rect opacity="0.3" x="45.3545" y="23.1056" width="47.8045" height="1.59348" rx="0.796741" fill="#D9D9D9"/>
<rect opacity="0.3" x="45.3545" y="26.2923" width="47.8045" height="1.59348" rx="0.796741" fill="#D9D9D9"/>
<rect opacity="0.3" x="45.3545" y="29.4793" width="47.8045" height="1.59348" rx="0.796741" fill="#D9D9D9"/>
<rect opacity="0.3" x="45.3545" y="32.6663" width="47.8045" height="1.59348" rx="0.796741" fill="#D9D9D9"/>
<rect opacity="0.3" x="45.3545" y="35.8533" width="47.8045" height="1.59348" rx="0.796741" fill="#D9D9D9"/>
<rect opacity="0.3" x="45.3545" y="39.0403" width="47.8045" height="1.59348" rx="0.796741" fill="#D9D9D9"/>
<rect opacity="0.3" x="45.3545" y="42.2274" width="47.8045" height="1.59348" rx="0.796741" fill="#D9D9D9"/>
<rect opacity="0.3" x="45.3545" y="45.4144" width="47.8045" height="1.59348" rx="0.796741" fill="#D9D9D9"/>
<rect x="45.3545" y="3.98384" width="21.512" height="9.5609" rx="2" fill="#D9D9D9"/>
<rect x="72.4436" y="7.17055" width="20.7153" height="1.59348" rx="0.796741" fill="#D9D9D9"/>
<rect x="72.4436" y="9.56104" width="20.7153" height="1.59348" rx="0.796741" fill="#D9D9D9"/>
<rect x="72.4436" y="11.9512" width="20.7153" height="1.59348" rx="0.796741" fill="#D9D9D9"/>
<path d="M27.954 28.9222L75.0214 60.1548L27.8799 85.4095L27.954 28.9222Z" fill="#4A8DD1"/>
<rect x="101.382" y="28.6828" width="9.5609" height="57.3654" fill="#4A8DD1"/>
<rect x="27.2852" y="28.6828" width="9.5609" height="57.3654" fill="#4A8DD1"/>
<path d="M109.734 28.9222L62.6661 60.1548L109.808 85.4095L109.734 28.9222Z" fill="#4A8DD1"/>
<path d="M69.2565 57.3653L109.966 86.048H28.5466L69.2565 57.3653Z" fill="#387FC7"/>
<rect opacity="0.3" x="22.0117" y="91.3567" width="75.0877" height="3.12865" rx="1.56433" fill="#D9D9D9"/>
<rect opacity="0.3" x="31.3977" y="103.871" width="75.0877" height="3.12865" rx="1.56433" fill="#D9D9D9"/>
<rect opacity="0.3" x="41.4093" y="97.614" width="75.0877" height="3.12865" rx="1.56433" fill="#D9D9D9"/>
</svg>
